<?xml version="1.0" encoding="UTF-8"?>
<svg version="1.1" xmlns="http://www.w3.org/2000/svg" width="100" height="100">
<path d="M0 0 C0.66 -0.0103125 1.32 -0.020625 2 -0.03125 C5.10678214 0.79398901 6.16129961 1.84771537 8 4.5 C8.48350654 7.59924686 8.37702968 10.6231155 8.25 13.75 C8.23195313 14.59046875 8.21390625 15.4309375 8.1953125 16.296875 C8.14830798 18.36507395 8.07656724 20.43268441 8 22.5 C8.66 22.5 9.32 22.5 10 22.5 C10.66 19.2 11.32 15.9 12 12.5 C25.2 12.5 38.4 12.5 52 12.5 C52.99 17.45 52.99 17.45 54 22.5 C54.66 22.5 55.32 22.5 56 22.5 C55.95359375 21.24703125 55.9071875 19.9940625 55.859375 18.703125 C55.82185187 17.05210719 55.78545229 15.40106358 55.75 13.75 C55.71648437 12.925 55.68296875 12.1 55.6484375 11.25 C55.55003531 5.14906411 55.55003531 5.14906411 57.765625 1.953125 C60.10374321 0.43253064 61.24347287 -0.04307074 64 0 C64.66 -0.0103125 65.32 -0.020625 66 -0.03125 C68.9330184 0.74783301 70.09463164 2.16558247 72 4.5 C72.51757812 7.27734375 72.51757812 7.27734375 72.53125 10.4375 C72.53898437 12.15066406 72.53898437 12.15066406 72.546875 13.8984375 C72.53140625 15.08695313 72.5159375 16.27546875 72.5 17.5 C72.52320312 19.28277344 72.52320312 19.28277344 72.546875 21.1015625 C72.54171875 22.24367188 72.5365625 23.38578125 72.53125 24.5625 C72.52673828 25.60535156 72.52222656 26.64820313 72.51757812 27.72265625 C71.87229477 31.1852711 70.765672 32.3784401 68 34.5 C64.984375 34.890625 64.984375 34.890625 61.75 34.75 C60.67234375 34.71390625 59.5946875 34.6778125 58.484375 34.640625 C57.66453125 34.59421875 56.8446875 34.5478125 56 34.5 C56 35.16 56 35.82 56 36.5 C58.27155498 36.41297874 60.54230743 36.30480478 62.8125 36.1875 C64.70935547 36.10048828 64.70935547 36.10048828 66.64453125 36.01171875 C69.8582235 35.76041609 69.8582235 35.76041609 71.67773438 34.39648438 C73.66802921 31.54186653 73.43896259 29.09317341 73.51171875 25.64453125 C73.53864555 24.65207649 73.53864555 24.65207649 73.56611633 23.63957214 C73.62020898 21.53061253 73.65410931 19.42187901 73.6875 17.3125 C73.72067427 15.88082792 73.75516405 14.44918567 73.79101562 13.01757812 C73.87593257 9.5119361 73.94274921 6.00621527 74 2.5 C75.32 2.5 76.64 2.5 78 2.5 C78.04943465 7.28717542 78.08573582 12.07420227 78.10986328 16.86157227 C78.11992142 18.49017932 78.13356958 20.11876832 78.15087891 21.74731445 C78.17513574 24.08809872 78.18648483 26.42864424 78.1953125 28.76953125 C78.20563507 29.49775589 78.21595764 30.22598053 78.22659302 30.97627258 C78.22742249 34.71275069 78.12883296 36.30675056 76 39.5 C75.72558628 41.6270431 75.72558628 41.6270431 75.8046875 43.94921875 C75.81113281 44.79677734 75.81757812 45.64433594 75.82421875 46.51757812 C75.84097656 47.39865234 75.85773438 48.27972656 75.875 49.1875 C75.88402344 50.08017578 75.89304687 50.97285156 75.90234375 51.89257812 C75.92590252 54.09532314 75.95879671 56.29752588 76 58.5 C74.68 58.5 73.36 58.5 72 58.5 C70.414131 55.328262 70.62133555 51.86486178 70.4375 48.375 C70.39431641 47.62089844 70.35113281 46.86679688 70.30664062 46.08984375 C70.2005168 44.22678112 70.09974999 42.36341476 70 40.5 C65.71 40.5 61.42 40.5 57 40.5 C57.165 41.469375 57.33 42.43875 57.5 43.4375 C57.91068224 46.3968279 58.15334558 49.3258784 58.25 52.3125 C58.27578125 53.06144531 58.3015625 53.81039062 58.328125 54.58203125 C58.21984375 55.21496094 58.1115625 55.84789062 58 56.5 C54.84288908 58.60474061 54.0892302 58.75163226 50.484375 58.75878906 C49.57333008 58.76509338 48.66228516 58.77139771 47.72363281 58.77789307 C46.74233398 58.7738446 45.76103516 58.76979614 44.75 58.765625 C43.2355127 58.76849518 43.2355127 58.76849518 41.69042969 58.77142334 C39.55533601 58.77278459 37.42023404 58.76909237 35.28515625 58.76074219 C32.01283212 58.75004196 28.74105701 58.76063967 25.46875 58.7734375 C23.39583212 58.77211589 21.32291458 58.76955348 19.25 58.765625 C18.26870117 58.76967346 17.28740234 58.77372192 16.27636719 58.77789307 C15.36532227 58.77158875 14.45427734 58.76528442 13.515625 58.75878906 C12.71415039 58.75719788 11.91267578 58.75560669 11.08691406 58.75396729 C9 58.5 9 58.5 6 56.5 C5.671875 54.58203125 5.671875 54.58203125 5.75 52.3125 C5.77578125 51.51585937 5.8015625 50.71921875 5.828125 49.8984375 C6.05564495 46.72350005 6.4658965 43.63785808 7 40.5 C2.71 40.5 -1.58 40.5 -6 40.5 C-6.06058594 41.63179687 -6.12117187 42.76359375 -6.18359375 43.9296875 C-6.26799917 45.41147145 -6.35264717 46.8932416 -6.4375 48.375 C-6.49647461 49.49455078 -6.49647461 49.49455078 -6.55664062 50.63671875 C-6.88671875 56.2734375 -6.88671875 56.2734375 -8 58.5 C-9.32 58.5 -10.64 58.5 -12 58.5 C-11.98952637 57.94014404 -11.97905273 57.38028809 -11.96826172 56.8034668 C-11.92666674 54.26485693 -11.90066315 51.7263188 -11.875 49.1875 C-11.85824219 48.30642578 -11.84148438 47.42535156 -11.82421875 46.51757812 C-11.81777344 45.67001953 -11.81132812 44.82246094 -11.8046875 43.94921875 C-11.79421387 43.16893311 -11.78374023 42.38864746 -11.77294922 41.5847168 C-11.87119141 39.1934152 -11.87119141 39.1934152 -14 36.5 C-14.17145815 33.88590855 -14.23233432 31.38130326 -14.1953125 28.76953125 C-14.1924826 28.01911057 -14.18965271 27.26868988 -14.18673706 26.49552917 C-14.17555062 24.10102325 -14.15044928 21.70689269 -14.125 19.3125 C-14.11496819 17.68815645 -14.10584269 16.06380703 -14.09765625 14.43945312 C-14.07561637 10.459491 -14.0410974 6.47980912 -14 2.5 C-12.68 2.5 -11.36 2.5 -10 2.5 C-9.98541748 3.39307861 -9.97083496 4.28615723 -9.95581055 5.20629883 C-9.89472923 8.52217278 -9.82057522 11.83721899 -9.73754883 15.15258789 C-9.70430999 16.58704628 -9.67627465 18.02163513 -9.65356445 19.45629883 C-9.61999729 21.51960807 -9.56768587 23.58172303 -9.51171875 25.64453125 C-9.48553467 26.88565674 -9.45935059 28.12678223 -9.43237305 29.40551758 C-9.24451613 32.4544371 -9.24451613 32.4544371 -7.67773438 34.39648438 C-4.90130028 36.22266047 -2.07734899 36.03773628 1.1875 36.1875 C2.45980469 36.25324219 3.73210938 36.31898437 5.04296875 36.38671875 C6.01878906 36.42410156 6.99460937 36.46148437 8 36.5 C8 35.84 8 35.18 8 34.5 C7.18015625 34.54640625 6.3603125 34.5928125 5.515625 34.640625 C3.89914063 34.69476563 3.89914063 34.69476563 2.25 34.75 C1.18265625 34.79640625 0.1153125 34.8428125 -0.984375 34.890625 C-4.77376428 34.39977147 -5.66524592 33.47004449 -8 30.5 C-8.51757812 27.72265625 -8.51757812 27.72265625 -8.53125 24.5625 C-8.53640625 23.42039062 -8.5415625 22.27828125 -8.546875 21.1015625 C-8.53140625 19.91304687 -8.5159375 18.72453125 -8.5 17.5 C-8.51546875 16.31148437 -8.5309375 15.12296875 -8.546875 13.8984375 C-8.54171875 12.75632812 -8.5365625 11.61421875 -8.53125 10.4375 C-8.52673828 9.39464844 -8.52222656 8.35179687 -8.51757812 7.27734375 C-7.64442252 2.5919578 -4.80333712 -0.07505214 0 0 Z M-2 5.5 C-4.89084609 9.83626914 -4.093197 13.49218832 -3.8125 18.5625 C-3.78091797 19.48611328 -3.74933594 20.40972656 -3.71679688 21.36132812 C-3.67232422 22.24369141 -3.62785156 23.12605469 -3.58203125 24.03515625 C-3.54311768 24.843479 -3.5042041 25.65180176 -3.46411133 26.48461914 C-3.15194362 28.89439971 -3.15194362 28.89439971 0 30.5 C2.28648848 30.74107326 2.28648848 30.74107326 4.6875 30.625 C5.49574219 30.60695313 6.30398437 30.58890625 7.13671875 30.5703125 C7.75160156 30.54710938 8.36648437 30.52390625 9 30.5 C9.33 29.18 9.66 27.86 10 26.5 C8.02 26.5 6.04 26.5 4 26.5 C4.02320313 25.31921875 4.04640625 24.1384375 4.0703125 22.921875 C4.08907497 21.36458967 4.10727466 19.80729748 4.125 18.25 C4.14175781 17.47269531 4.15851562 16.69539063 4.17578125 15.89453125 C4.25968301 10.41693064 4.25968301 10.41693064 2 5.5 C0.68 5.5 -0.64 5.5 -2 5.5 Z M62 5.5 C59.28513066 9.47610786 59.77559247 13.63901977 59.875 18.25 C59.88853516 19.43916016 59.88853516 19.43916016 59.90234375 20.65234375 C59.92582988 22.60169281 59.96169863 24.55088575 60 26.5 C58.02 26.5 56.04 26.5 54 26.5 C54.33 27.82 54.66 29.14 55 30.5 C56.4370809 30.55422947 57.87475462 30.59289723 59.3125 30.625 C60.11300781 30.64820312 60.91351563 30.67140625 61.73828125 30.6953125 C64.28388576 30.65817322 64.28388576 30.65817322 67 28.5 C67.53925741 26.43061654 67.53925741 26.43061654 67.58203125 24.03515625 C67.62650391 23.15279297 67.67097656 22.27042969 67.71679688 21.36132812 C67.74837891 20.43771484 67.77996094 19.51410156 67.8125 18.5625 C67.86341797 17.64275391 67.91433594 16.72300781 67.96679688 15.77539062 C68.34189927 10.3246799 68.34189927 10.3246799 66 5.5 C64.68 5.5 63.36 5.5 62 5.5 Z M16 16.5 C15.175 21.676875 14.35 26.85375 13.5 32.1875 C13.23896484 33.81260498 12.97792969 35.43770996 12.70898438 37.11206055 C12.40444336 39.04239136 12.40444336 39.04239136 12.09375 41.01171875 C11.93181152 42.00975525 11.93181152 42.00975525 11.76660156 43.0279541 C11.21521488 46.5535468 10.87993726 49.93113508 11 53.5 C12.64574566 53.52688151 14.29161413 53.54634123 15.9375 53.5625 C17.31228516 53.57990234 17.31228516 53.57990234 18.71484375 53.59765625 C20.96593327 53.75949049 20.96593327 53.75949049 22 52.5 C22.07244053 50.48035801 22.08377188 48.45832876 22.0625 46.4375 C22.05347656 45.33277344 22.04445313 44.22804688 22.03515625 43.08984375 C22.02355469 42.23519531 22.01195312 41.38054687 22 40.5 C23.32 40.5 24.64 40.5 26 40.5 C25.98839844 41.35464844 25.97679687 42.20929688 25.96484375 43.08984375 C25.95582031 44.19457031 25.94679688 45.29929687 25.9375 46.4375 C25.92589844 47.53964844 25.91429687 48.64179687 25.90234375 49.77734375 C25.68737429 52.41447634 25.68737429 52.41447634 27 53.5 C28.66429051 53.59823937 30.33281931 53.62973631 32 53.625 C32.9075 53.62757812 33.815 53.63015625 34.75 53.6328125 C36.96966611 53.75173779 36.96966611 53.75173779 38 52.5 C38.07148199 51.14756083 38.08399454 49.79165633 38.0625 48.4375 C38.041875 47.138125 38.02125 45.83875 38 44.5 C39.32 44.5 40.64 44.5 42 44.5 C41.96744792 46.55078125 41.93489583 48.6015625 41.90234375 50.65234375 C41.79438816 52.51732141 41.79438816 52.51732141 43 53.5 C44.68608966 53.57205511 46.37500659 53.58386068 48.0625 53.5625 C50.53125 53.53125 50.53125 53.53125 53 53.5 C52.42382943 44.99306762 51.3415018 36.65702008 49.9375 28.25 C49.298125 24.3725 48.65875 20.495 48 16.5 C37.44 16.5 26.88 16.5 16 16.5 Z " fill="#CCCCCC" transform="translate(18,29.5)"/>
<path d="M0 0 C2.5 1.5 2.5 1.5 4 4 C4.791013 8.02098277 4.62153384 10.96411027 2.5 14.5 C-1.03588973 16.62153384 -3.97901723 16.791013 -8 16 C-10.5 14.5 -10.5 14.5 -12 12 C-12.791013 7.97901723 -12.62153384 5.03588973 -10.5 1.5 C-6.96411027 -0.62153384 -4.02098277 -0.791013 0 0 Z M-6 5 C-6.33 6.65 -6.66 8.3 -7 10 C-4.525 10.495 -4.525 10.495 -2 11 C-1.67 9.35 -1.34 7.7 -1 6 C-2.65 5.67 -4.3 5.34 -6 5 Z " fill="#CBCBCB" transform="translate(86,12)"/>
<path d="M0 0 C2.5 1.5 2.5 1.5 4 4 C4.791013 8.02098277 4.62153384 10.96411027 2.5 14.5 C-1.03588973 16.62153384 -3.97901723 16.791013 -8 16 C-10.5 14.5 -10.5 14.5 -12 12 C-12.791013 7.97901723 -12.62153384 5.03588973 -10.5 1.5 C-6.96411027 -0.62153384 -4.02098277 -0.791013 0 0 Z M-6 5 C-6.33 6.65 -6.66 8.3 -7 10 C-4.525 10.495 -4.525 10.495 -2 11 C-1.67 9.35 -1.34 7.7 -1 6 C-2.65 5.67 -4.3 5.34 -6 5 Z " fill="#CBCBCB" transform="translate(22,12)"/>
</svg>
