<svg width="20" height="20" viewBox="0 0 20 20" fill="none" xmlns="http://www.w3.org/2000/svg">
<path d="M2.29169 13.7308C4.02502 15.5896 6.44127 15.3125 7.87169 15.2688M2.29169 11.4058C3.86877 13.2058 5.96044 13.3483 7.94335 13.1225M7.74044 7.27251C1.4271 5.94834 0.647937 11.6617 7.74044 11.0033M8.91419 15.1258C10.5613 16.8342 16.1213 17.2175 17.7084 14.9467M8.91419 12.5146C10.1479 14.7854 15.8796 14.7546 17.7084 12.6938M8.91419 10.2792C11.4892 12.9788 16.2059 12.055 17.7084 10.2792" stroke="#BFC8DA" stroke-width="0.8" stroke-linecap="round" stroke-linejoin="round"/>
<path d="M8.91418 8.04333C10.5375 10.2792 15.8809 10.3442 17.7084 8.07917" stroke="#BFC8DA" stroke-width="0.8" stroke-linecap="round" stroke-linejoin="round"/>
<path d="M13.3188 7.59501C15.5905 7.59501 17.4321 6.67178 17.4321 5.53292C17.4321 4.39407 15.5905 3.47084 13.3188 3.47084C11.047 3.47084 9.20544 4.39407 9.20544 5.53292C9.20544 6.67178 11.047 7.59501 13.3188 7.59501Z" stroke="#BFC8DA" stroke-width="0.8" stroke-linecap="round" stroke-linejoin="round"/>
<path d="M7.74042 7.27251V11.0033" stroke="#111111" stroke-width="0.8" stroke-linecap="round" stroke-linejoin="round"/>
</svg>
